<svg width="1109" height="765" viewBox="0 0 1109 765" fill="none" xmlns="http://www.w3.org/2000/svg">
<rect width="1109" height="765" fill="white"/>
<path d="M710.284 255.271L710.284 247.771L736.284 237.271L767.784 200.771L824.284 223.771" stroke="black" stroke-width="2"/>
<path d="M793.774 258.771L833.284 212.271L844.284 218.271L868.284 198.271L896.784 161.771L928.284 188.771L932.284 218.271L941.029 237.021L960.284 255.271L990.784 258.771" stroke="black" stroke-width="2"/>
<path d="M930.459 207.892L945.284 202.271L955.284 185.271L966.784 194.771L977.784 213.271L992.784 218.771L1008.78 234.771" stroke="black" stroke-width="2"/>
<path d="M891.784 196.271L896.784 162.271L869.284 198.771L843.284 219.271L850.784 219.271L856.284 226.271L843.284 239.771L852.784 234.271L856.284 244.271L856.284 262.271L852.784 275.271L875.284 246.771L898.148 262.271L885.784 244.271L891.784 226.271L880.284 209.771L891.784 196.271Z" fill="black" fill-opacity="0.5"/>
<path d="M837.284 229.271L833.284 213.771L804.784 247.271L807.784 248.771L807.784 252.771L810.784 250.271L813.284 251.771L812.784 254.771L817.784 252.771L814.284 277.271L836.784 248.771L827.784 232.771L837.284 229.271Z" fill="black" fill-opacity="0.5"/>
<path d="M785.284 223.771L809.784 240.271L800.284 251.271L783.284 248.271L772.784 230.271L769.784 244.271L769.784 261.271L766.284 268.271L760.784 244.271L769.784 226.271L785.284 223.771Z" fill="black" fill-opacity="0.5"/>
<path d="M769.784 224.771L762.464 206.887L766.784 203.271L769.784 224.771Z" fill="black" fill-opacity="0.5"/>
<path d="M784.784 218.271L780.987 206.814L787.284 209.771L784.784 218.271Z" fill="black" fill-opacity="0.5"/>
<path d="M751.284 227.58L757.177 213.58L742.784 231.271L748.784 241.771L738.784 246.771L729 264.5L736 259.5L742.784 248.771L752.284 241.771L751.284 227.58Z" fill="black" fill-opacity="0.5"/>
<path d="M714.81 257.5L736.481 238.581L724.81 243.111L716.5 251.5L714.81 246.111L711.31 248.611L711.31 255.611L699.5 257.5L714.81 257.5Z" fill="black" fill-opacity="0.5"/>
<path d="M903.251 198.771L903.251 167.092L914.784 177.271L908.784 195.771L917.784 220.771L903.251 198.771Z" fill="black" fill-opacity="0.5"/>
<path d="M935.284 208.771L931.784 208.271L944.784 202.771L950.284 194.271L947.284 203.771L944.784 208.771L941.56 210.271L943.784 212.771L936.284 227.771L935.284 225.271L937.784 212.271L935.284 208.771Z" fill="black" fill-opacity="0.5"/>
<path d="M961.138 203.271L961.138 190.918L965.284 193.771L963.784 203.271L969.284 217.771L961.138 203.271Z" fill="black" fill-opacity="0.5"/>
<path d="M666.4 288.2L695 257L710.5 255" stroke="black" stroke-width="2"/>
<path d="M548 445.5L439.5 500.5L648 683L899 445.5L786 387.5" stroke="black" stroke-width="2"/>
<path d="M616.762 391.439L616.762 243.44L308.5 243.44L308.5 435.5L531 435.5" stroke="black" stroke-width="2"/>
<path d="M625.111 389.884L626.746 230.478L299.165 233.885L297.043 440.747L533.487 438.288" stroke="black" stroke-width="2"/>
<path d="M468.76 232.15L468.76 180.211L483.071 180.211L483.071 201.701C483.071 204.993 485.754 207.656 489.071 207.656L494.228 207.656C495.495 207.656 496.73 207.26 497.76 206.523L501.273 204.009C502.85 202.88 503.786 201.068 503.786 199.142L503.786 184.619" stroke="black" stroke-width="2"/>
<path d="M490.258 180.358L494.934 182.741C495.186 182.87 495.482 182.886 495.746 182.785L500.734 180.878C501.39 180.628 502.095 181.113 502.095 181.815L502.095 233.207" stroke="black" stroke-width="2"/>
<path d="M473.846 179.831L472.696 171.784C472.045 167.233 469.177 163.285 465.028 161.23L462.356 159.906" stroke="black" stroke-width="2"/>
<path d="M482.266 179.772L483.186 173.135C483.664 169.688 483.177 166.172 481.778 162.974L481.084 161.387C479.36 157.445 476.344 154.196 472.529 152.172L466.812 149.137C466.661 149.057 466.498 149.001 466.329 148.974L464.505 148.672C463.571 148.518 462.992 149.646 463.664 150.312V150.312C463.903 150.548 464.246 150.646 464.572 150.571L472.978 148.649C474.346 148.336 475.668 147.851 476.912 147.206L482.928 144.084C483.582 143.744 484.291 143.522 485.024 143.426V143.426C490.582 142.702 492.479 135.669 488.043 132.236L472.925 120.533" stroke="black" stroke-width="2"/>
<path d="M488.99 179.606L494.595 171.872C496.897 168.695 496.286 164.266 493.209 161.827L489.268 158.703C488.626 158.194 488.462 157.286 488.887 156.585V156.585C489.208 156.054 489.805 155.753 490.423 155.809L494.062 156.136L498.073 156.136C502.499 156.136 506.698 154.182 509.546 150.795L517.736 141.057" stroke="black" stroke-width="2"/>
<path d="M488.027 129.877L493.488 132.146C497.505 133.814 499.337 138.441 497.535 142.368L496.638 144.323C495.433 146.949 492.357 148.172 489.653 147.101L487.881 146.398C486.774 145.96 485.509 146.267 484.734 147.163V147.163C483.986 148.027 483.852 149.258 484.394 150.261L488.027 156.974" stroke="black" stroke-width="2"/>
<path d="M432.478 152.599L430.84 155.771C428.904 159.52 432.197 163.808 436.328 162.918L444.593 161.138C445.158 161.016 445.739 160.993 446.311 161.068L464.607 163.49" stroke="black" stroke-width="2"/>
<path d="M532.563 233.757L532.563 114L610 114L610 229.5" stroke="black" stroke-width="2"/>
<path d="M549.506 232L549.506 185.572C549.506 184.245 548.979 182.973 548.041 182.035L541.773 175.772C540.95 174.95 540.44 173.867 540.329 172.709L538.806 156.714C538.62 154.757 539.597 152.873 541.303 151.898L542.681 151.111C544.395 150.131 546.526 150.252 548.118 151.42L552.302 154.488C552.764 154.827 553.164 155.242 553.485 155.716L556.765 160.557C559.258 164.238 564.955 163.078 565.811 158.715L568.023 147.432C568.324 145.9 567.891 144.315 566.854 143.148L562.299 138.024C561.177 136.761 560.768 135.017 561.213 133.387L561.575 132.06C561.839 131.089 562.583 130.321 563.545 130.025L565.904 129.299C567.047 128.947 567.37 127.483 566.481 126.683V126.683C565.433 125.74 566.1 124 567.511 124L582.4 124C585.713 124 588.11 127.164 587.213 130.354L585.012 138.18C584.682 139.353 584.792 140.606 585.32 141.703L590.34 152.13C590.77 153.023 590.925 154.024 590.785 155.006L589.334 165.163C589.122 166.643 588.26 167.95 586.984 168.727L582.716 171.325C580.019 172.967 579.504 176.671 581.646 178.991V178.991C582.8 180.242 584.514 180.821 586.19 180.525L596.252 178.75C598.692 178.319 601.08 179.741 601.864 182.092L602.574 184.222C603.146 185.938 602.747 187.828 601.53 189.167L600.121 190.717C599.097 191.844 597.615 192.442 596.096 192.343L579.259 191.245C577.033 191.1 574.981 192.446 574.227 194.545L570.693 204.392C569.585 207.478 571.698 210.778 574.965 211.062L575.786 211.134C578.219 211.345 580.143 213.282 580.337 215.716L580.593 218.916C580.817 221.707 583.288 223.771 586.075 223.493L586.851 223.415C589.254 223.175 591.142 221.251 591.337 218.844L592.39 205.852C592.462 204.967 592.769 204.116 593.278 203.389L593.863 202.553C595.071 200.828 597.4 200.317 599.219 201.378V201.378C600.847 202.327 601.604 204.275 601.046 206.075L597.977 215.963C597.667 216.963 597.678 218.034 598.009 219.026L598.5 220.5" stroke="black" stroke-opacity="0.5" stroke-width="2"/>
<path d="M187.633 133.949L187.633 122.161L330.936 122.161L330.936 136.093" stroke="black" stroke-width="2"/>
<line x1="183" y1="135.15" x2="323.021" y2="135.15" stroke="black" stroke-width="2"/>
<path d="M282.839 78.8262L287.375 80.746C288.066 81.0386 288.206 81.9559 287.631 82.4336L284.79 84.7963C282.089 87.0427 278.88 88.6018 275.437 89.3409L275.262 89.3785C272.281 90.0184 269.193 90.0037 266.212 89.3354V89.3354C262.93 88.5997 259.868 87.0922 257.282 84.9388L255.083 83.1075C254.37 82.5135 253.304 83.1184 253.456 84.0313L257.339 107.422L261.218 120.556" stroke="black" stroke-width="2"/>
<path d="M283.708 120.588L286.108 111.927C287.096 108.362 287.752 104.715 288.068 101.031L289.759 81.3228" stroke="black" stroke-width="2"/>
<path d="M264.686 77.119L258.203 60.9007L257.509 59.1975C256.688 57.1816 258.686 55.1619 260.711 55.9618V55.9618C261.404 56.2355 261.936 56.8072 262.16 57.5179L265.696 68.7716" stroke="black" stroke-width="2"/>
<path d="M264.425 82.7128L266.993 58.1016L269.338 44.5918C269.5 43.663 269.948 42.8059 270.622 42.1407L271.385 41.387C273.103 39.6905 275.958 40.0479 277.177 42.1122V42.1122C277.58 42.7948 277.75 43.5902 277.661 44.3798L274.773 70.0519" stroke="black" stroke-width="2"/>
<path d="M268.007 80.8255L283.45 59.6672C283.989 58.9279 284.757 58.3815 285.638 58.1096V58.1096C288.393 57.2595 291.196 59.2968 291.196 62.1492L291.196 62.9597C291.196 63.9638 290.879 64.9423 290.288 65.7583L279.381 80.8254" stroke="black" stroke-width="2"/>
<line y1="-1" x2="10.4224" y2="-1" transform="matrix(-0.91231 0.4095 -0.418132 -0.908386 263.39 77.119)" stroke="black" stroke-width="2"/>
<rect x="321.441" y="55.0719" width="9.23729" height="66.2877" fill="white" stroke="black" stroke-width="2"/>
<rect x="0.717639" y="1.21362" width="10.0626" height="45.6107" transform="matrix(0.969319 0.245807 -0.25168 0.967811 299.903 73.5673)" fill="white" stroke="black" stroke-width="2"/>
<rect x="0.717639" y="1.21362" width="9.27408" height="37.0083" transform="matrix(0.969319 0.245807 -0.25168 0.967811 310.704 81.2497)" fill="white" stroke="black" stroke-width="2"/>
<path d="M34.633 177.54L34.633 165.751L177.936 165.751L177.936 179.684" stroke="black" stroke-width="2"/>
<line x1="30" y1="178.741" x2="170.021" y2="178.741" stroke="black" stroke-width="2"/>
<path d="M54.7415 139.716L55.6098 141.806C58.8485 149.601 64.5636 155.921 71.744 159.648L74.9637 161.319" stroke="black" stroke-width="2"/>
<mask id="path-41-inside-1_6_238" fill="white">
<path fill-rule="evenodd" clip-rule="evenodd" d="M51.7778 139.716C48.5868 139.716 46 137.988 46 135.858C46 133.727 48.5868 132 51.7778 132H118.222C121.413 132 124 133.727 124 135.858C124 137.988 121.413 139.716 118.222 139.716H51.7778Z"/>
</mask>
<path fill-rule="evenodd" clip-rule="evenodd" d="M51.7778 139.716C48.5868 139.716 46 137.988 46 135.858C46 133.727 48.5868 132 51.7778 132H118.222C121.413 132 124 133.727 124 135.858C124 137.988 121.413 139.716 118.222 139.716H51.7778Z" fill="white"/>
<path d="M44 135.858C44 137.798 45.1781 139.312 46.5817 140.249C47.9989 141.195 49.8419 141.716 51.7778 141.716V137.716C50.5227 137.716 49.4768 137.372 48.8029 136.922C48.1153 136.463 48 136.048 48 135.858H44ZM51.7778 130C49.8419 130 47.9989 130.52 46.5817 131.467C45.1781 132.404 44 133.917 44 135.858H48C48 135.668 48.1153 135.252 48.8029 134.793C49.4768 134.343 50.5227 134 51.7778 134V130ZM51.7778 134H118.222V130H51.7778V134ZM126 135.858C126 133.917 124.822 132.404 123.418 131.467C122.001 130.52 120.158 130 118.222 130V134C119.477 134 120.523 134.343 121.197 134.793C121.885 135.252 122 135.668 122 135.858H126ZM118.222 141.716C120.158 141.716 122.001 141.195 123.418 140.249C124.822 139.312 126 137.798 126 135.858H122C122 136.048 121.885 136.463 121.197 136.922C120.523 137.372 119.477 137.716 118.222 137.716V141.716ZM118.222 137.716H51.7778V141.716H118.222V137.716Z" fill="black" mask="url(#path-41-inside-1_6_238)"/>
<path d="M115.605 139.97L112.757 147.226C110.443 153.122 106.41 158.053 101.251 161.293L94.6601 165.432" stroke="black" stroke-width="2"/>
<rect x="1.29031" y="0.568301" width="5.75502" height="46.2236" transform="matrix(0.931035 -0.36493 0.359278 0.933231 116.665 121.339)" fill="white" stroke="black" stroke-width="2"/>
<circle cx="150.5" cy="159.5" r="4.5" fill="white" stroke="black" stroke-width="2"/>
<circle cx="161.5" cy="159.5" r="4.5" fill="white" stroke="black" stroke-width="2"/>
<path d="M125.605 560.229L129.709 566.816C131.067 568.996 132.759 570.956 134.727 572.628L136.905 574.478C140.106 577.198 144.205 578.693 148.459 578.693V578.693L195.708 574.239C197.607 574.06 199.486 573.708 201.321 573.187L207.22 571.514C210.426 570.605 213.209 568.608 215.069 565.882L216.176 564.26C217.014 563.032 217.461 561.59 217.461 560.119V560.119C217.461 556.868 219.626 553.979 222.795 553.001L223.643 552.74C225.065 552.301 226.582 552.226 228.037 552.52V552.52C233.485 553.621 236.562 559.326 234.404 564.386L232.871 567.982C232.272 569.385 231.408 570.665 230.325 571.756L226.644 575.461C220.709 581.436 212.853 585.208 204.432 586.128L152.378 591.814C148.616 592.225 144.818 592.058 141.119 591.319L135.694 590.234C130.218 589.14 125.1 586.78 120.761 583.348V583.348C113.197 577.366 108.529 568.551 107.869 559.005L107.752 557.316C107.084 547.654 110.455 538.105 117.09 530.869L117.962 529.918C122.938 524.491 129.472 520.671 136.688 518.969L156.223 514.362C161.245 513.178 166.456 513.053 171.511 513.996L212.187 521.583L217.097 507.757C218.786 503.001 221.477 498.64 224.993 494.959L225.812 494.102L231.965 490.666V490.666C234.78 493.416 236.36 497.158 236.36 501.073L236.36 501.831L238.854 501.831C242.733 501.831 246.582 502.44 250.254 503.636L251.175 503.936C256.463 505.658 261.265 508.557 265.206 512.408L265.367 512.566L277.234 509.56" stroke="black" stroke-width="2"/>
<path d="M265.247 512.582L271.96 520.724L272.876 519.918C275.126 517.941 276.606 515.242 277.066 512.282L277.553 509.147" stroke="black" stroke-width="2"/>
<path d="M278.102 508.794L278.557 514.017C278.834 517.192 277.736 520.345 275.541 522.685V522.685C274.626 523.66 273.891 524.788 273.371 526.016L270.326 533.206C269.37 535.462 268.061 537.555 266.447 539.407L264.108 542.089C260.663 546.04 255.941 548.667 250.771 549.509V549.509C247.363 550.064 243.88 549.823 240.596 548.806L231.961 546.131C229.11 545.248 226.629 543.469 224.889 541.059V541.059C223.202 538.726 222.296 535.919 222.296 533.031L222.296 521.154" stroke="black" stroke-width="2"/>
<path d="M235.481 514.792L241.116 517.059L245.951 518.777" stroke="black" stroke-width="2"/>
<path d="M253.94 521.186L257.272 524.084L261.42 526.127" stroke="black" stroke-width="2"/>
<path d="M245.908 531.459C245.908 532.545 245 533.465 243.832 533.465C242.663 533.465 241.755 532.545 241.755 531.459C241.755 530.373 242.663 529.453 243.832 529.453C245 529.453 245.908 530.373 245.908 531.459Z" fill="white" stroke="black" stroke-width="2"/>
<path d="M243.121 528.791L237.336 523.022C235.547 521.238 233.293 519.966 230.814 519.344V519.344" stroke="black" stroke-width="2"/>
<path d="M246.989 531.467L249.859 531.818C252.554 532.148 255.155 532.997 257.519 534.316L260.093 535.753" stroke="black" stroke-width="2"/>
<path d="M245.347 533.222L246.621 533.764C249.668 535.058 252.224 537.253 253.94 540.047V540.047" stroke="black" stroke-width="2"/>
<path d="M231.965 528.453L239.437 531.03L239.796 532.612C240.122 534.046 241.132 535.236 242.511 535.814V535.814C243.092 536.057 243.719 536.183 244.352 536.183L246.469 536.183" stroke="black" stroke-width="2"/>
<path d="M216.164 488.092L199.821 447.864C197.912 443.166 193.347 440.092 188.275 440.092V440.092C186.553 440.092 184.849 440.449 183.272 441.141L76.1636 488.092L79.5789 499.704C80.63 503.278 81.1636 506.984 81.1636 510.709L81.1636 520.85C81.1636 526.285 82.2995 531.66 84.4983 536.63L117.664 611.592L127.669 638.808C129.318 643.293 131.777 647.436 134.923 651.032L149.694 667.912C155.195 674.199 162.569 678.553 170.731 680.334L185.664 683.592" stroke="black" stroke-width="2"/>
<path d="M250.513 551.234L273.966 595.053C275.749 598.384 278.128 601.361 280.983 603.836L286.544 608.655C289.796 611.473 291.664 615.564 291.664 619.867V619.867C291.664 624.709 289.301 629.246 285.335 632.022L280.606 635.333C278 637.157 275.08 638.486 271.993 639.253L254.435 643.617C251.83 644.265 249.314 645.228 246.942 646.485L220.325 660.592C216.586 662.574 212.5 663.818 208.291 664.256L166.664 668.592" stroke="black" stroke-width="2"/>
<line x1="175.164" y1="598.592" x2="175.164" y2="617.592" stroke="black" stroke-width="2"/>
<path d="M184.413 594.159L188.475 600.738C190.233 603.584 192.749 605.885 195.741 607.381L201.164 610.092" stroke="black" stroke-width="2"/>
<path d="M204.181 590.093L208.751 593.056C211.252 594.677 214.303 595.214 217.207 594.545L232.181 591.093" stroke="black" stroke-width="2"/>
<path d="M170.162 507.953V507.953C168.486 502.851 170.112 496.738 174.415 491.963L174.496 491.874" stroke="black" stroke-width="2"/>
<path d="M159.323 509.507L158.62 507.998C156.275 502.962 155.756 497.44 157.155 492.423V492.423" stroke="black" stroke-width="2"/>
<path d="M148.668 508.172L144.499 504.8C141.838 502.648 137.455 501.11 132.229 500.494L129.164 500.133" stroke="black" stroke-width="2"/>
<path d="M681.5 290.5L664.738 290.5L664.738 109.574L1008.5 109.574L1008.5 290.5L802.5 290.5" stroke="black" stroke-width="2"/>
<path d="M673.5 300.5L654.995 300.5L654.995 100.5L1021.99 100.5L1021.99 300.5L813.5 300.5" stroke="black"/>
</svg>
