<svg width="77" height="60" viewBox="0 0 77 60" fill="none" xmlns="http://www.w3.org/2000/svg">
<line y1="-1" x2="23.868" y2="-1" transform="matrix(-0.671233 0.741247 -0.728283 -0.685276 30.4131 11.7794)" stroke="black" stroke-width="2"/>
<path d="M25.4118 16.6024L24.8166 8.72115C24.5695 5.44874 22.3105 2.69124 19.1589 1.81508V1.81508C17.877 1.4587 16.5002 1.87042 15.6156 2.87463L5.13536 14.7716C3.6295 16.4811 3.83601 19.0938 5.59003 20.5242L7.64909 22.2034C8.57492 22.9584 9.64303 23.5195 10.7907 23.8537L18.3974 26.0691" stroke="black" stroke-width="2"/>
<path d="M28.7431 17.1941L31.1815 16.663C34.43 15.9555 37.8053 17.0115 40.0641 19.442V19.442C41.4137 20.8941 41.4639 23.1295 40.181 24.6493L33.0213 33.1311C31.3539 35.1064 28.462 35.4922 26.3462 34.0217L24.5095 32.7452C23.3369 31.9302 22.32 30.9115 21.5068 29.7372L18.7311 25.7289" stroke="black" stroke-width="2"/>
<line y1="-1" x2="11.5871" y2="-1" transform="matrix(-0.0576105 -0.998339 0.998207 -0.0598548 31.0806 11.7794)" stroke="black" stroke-width="2"/>
<line y1="-1" x2="8.70307" y2="-1" transform="matrix(0.920419 -0.390933 0.378365 0.925656 33.0833 11.7794)" stroke="black" stroke-width="2"/>
<line y1="-1" x2="19.1591" y2="-1" transform="matrix(0.163591 0.986528 0.897227 -0.44157 53.3312 29.6035)" stroke="black" stroke-width="2"/>
<path d="M54.5739 34.9371L58.561 27.522C59.5827 25.6219 61.4939 24.5393 63.5245 24.7105V24.7105C64.6713 24.8072 65.628 25.7739 65.8198 27.0296L67.682 39.2247C67.9802 41.1775 67.0126 43.05 65.3571 43.724L63.7029 44.3974C62.6118 44.8416 61.4417 45.029 60.2659 44.948L55.2965 44.6056" stroke="black" stroke-width="2"/>
<path d="M52.3099 34.4647L52.1339 34.3114C49.786 32.2662 46.5138 31.9093 43.8979 33.413V33.413C42.822 34.0315 42.2298 35.2808 42.401 36.5706L43.4593 44.5399C43.8237 47.2845 46.4676 49.0781 48.977 48.2832V48.2832C50.0407 47.9462 51.0394 47.4263 51.9327 46.7444L55.2205 44.2348" stroke="black" stroke-width="2"/>
<line y1="-1" x2="10.3445" y2="-1" transform="matrix(0.461704 -0.887034 -0.870103 -0.492871 52.9222 29.4128)" stroke="black" stroke-width="2"/>
<line y1="-1" x2="6.20882" y2="-1" transform="matrix(-0.583409 -0.812178 -0.671465 0.741036 51.6956 28.8409)" stroke="black" stroke-width="2"/>
</svg>
