<svg width="159" height="171" viewBox="0 0 159 171" fill="none" xmlns="http://www.w3.org/2000/svg">
<path d="M61.1636 77.0128L40.9786 84.7306C30.6666 88.6734 23.3745 97.9879 22.0218 108.945C20.3688 122.334 27.9056 135.167 40.4045 140.244L44.7193 141.997C49.0126 143.741 53.6028 144.638 58.2369 144.638L80.8329 144.638C83.0674 144.638 85.2781 144.181 87.329 143.294L93.3457 140.692C98.4858 138.469 100.787 132.45 98.4401 127.365C97.3383 124.978 97.2242 122.252 98.1228 119.781L100.193 114.088C101.841 109.554 104.783 105.603 108.653 102.723L113.567 99.0658C120.475 93.9251 125.491 86.6466 127.836 78.3614C130.345 69.4986 129.641 60.0346 125.85 51.6401L110.72 18.1382L83.5407 59.0988C78.129 67.2545 70.306 73.5172 61.1636 77.0128Z" stroke="black" stroke-width="2"/>
<path d="M29.7894 134.884L21.4078 126.394C18.0117 122.953 15.6015 118.664 14.4291 113.974L14.2731 113.35C12.057 104.486 14.4744 95.1022 20.6976 88.4121L25.7151 83.0182C28.3988 80.1332 31.6813 77.8705 35.3323 76.389L59.7791 66.4691C65.8637 64.0001 70.84 59.3984 73.7766 53.5252L83.7201 33.6382" stroke="black" stroke-width="2"/>
<path d="M69.7823 146.38L61.7192 130.907C56.7107 121.296 60.2687 109.445 69.7426 104.181L79.2249 98.9133C82.4897 97.0996 85.1814 94.4079 86.9952 91.1431L106.72 55.6382L109.329 70.9669C110.22 76.1987 108.994 81.5699 105.923 85.8979L91.5502 106.15C89.6909 108.77 88.49 111.8 88.0494 114.982L84.2201 142.638" stroke="black" stroke-width="2"/>
</svg>
