<svg width="298" height="334" viewBox="0 0 298 334" fill="none" xmlns="http://www.w3.org/2000/svg">
<path d="M169.029 93.2736L161.369 102.244L156.229 105.709C155.428 106.248 155.774 107.509 156.734 107.551L160.53 107.718L167.187 107.418" stroke="black" stroke-width="2"/>
<path d="M166.68 118.524V118.524C173.269 119.781 180.088 118.343 185.609 114.532L187.452 113.259" stroke="black" stroke-width="2"/>
<path d="M167.986 78.4164L169.079 79.0618C171.702 80.6104 174.687 81.4272 177.723 81.4272L179.167 81.4272" stroke="black" stroke-width="2"/>
<path d="M187.029 84.9119L187.464 85.3925C189.686 87.8497 192.532 89.6454 195.689 90.583L196.941 90.9548" stroke="black" stroke-width="2"/>
<path d="M207.007 136.51L213.414 168.169C215.677 179.352 212.018 190.947 203.737 198.833L163.793 236.875" stroke="black" stroke-width="2"/>
<path d="M89.4574 265.929L120.94 296.636C127.537 303.071 138.125 302.647 144.108 295.707L247.015 176.351C253.214 169.161 258.026 160.869 261.206 151.897L289.831 71.1277C293.261 61.45 288.402 50.7366 278.86 46.936L192.355 12.482C183.728 9.04583 173.997 13.1835 170.495 21.7768L127.03 128.434L108.042 147.667" stroke="black" stroke-width="2"/>
<path d="M152.298 111.829L120.631 139.356C113.392 145.648 104.96 150.378 95.8571 153.253L72.0853 160.761L58.3493 163.217L50.2692 169.355L52.2892 176.312L58.3493 177.948L69.6613 178.767L62.7933 180.813L60.3693 184.087L64.8133 185.723L79.7613 178.767" stroke="black" stroke-width="2"/>
<line y1="-1" x2="46.6323" y2="-1" transform="matrix(-0.675756 0.737125 -0.728428 -0.685122 194.498 179.176)" stroke="black" stroke-width="2"/>
<mask id="path-9-inside-1_5_88" fill="white">
<path fill-rule="evenodd" clip-rule="evenodd" d="M162.986 204.562C162.97 208.623 156.645 211.913 148.846 211.913C141.036 211.913 134.705 208.615 134.705 204.547C134.705 204.271 134.735 203.998 134.792 203.729H134.705V245.468C142.813 251.952 154.293 252.088 162.552 245.798L162.986 245.468V204.562ZM162.899 203.729C162.955 203.993 162.984 204.261 162.986 204.532V203.729H162.899Z"/>
</mask>
<path d="M162.986 204.562H164.986L160.986 204.555L162.986 204.562ZM134.792 203.729L136.748 204.144L137.261 201.729H134.792V203.729ZM134.705 203.729V201.729H132.705V203.729H134.705ZM134.705 245.468H132.705V246.43L133.456 247.03L134.705 245.468ZM162.552 245.798L163.764 247.39L163.764 247.39L162.552 245.798ZM162.986 245.468L164.197 247.06L164.986 246.459V245.468H162.986ZM162.899 203.729V201.729H160.43L160.943 204.144L162.899 203.729ZM162.986 204.532L160.986 204.54L164.986 204.532H162.986ZM162.986 203.729H164.986V201.729H162.986V203.729ZM160.986 204.555C160.982 205.466 160.229 206.781 157.912 207.986C155.693 209.14 152.491 209.913 148.846 209.913V213.913C153 213.913 156.86 213.041 159.757 211.535C162.557 210.08 164.973 207.72 164.985 204.57L160.986 204.555ZM148.846 209.913C145.196 209.913 141.991 209.138 139.771 207.982C137.454 206.775 136.705 205.459 136.705 204.547H132.705C132.705 207.704 135.122 210.071 137.923 211.529C140.821 213.039 144.686 213.913 148.846 213.913V209.913ZM136.705 204.547C136.705 204.413 136.72 204.279 136.748 204.144L132.835 203.314C132.75 203.716 132.705 204.129 132.705 204.547H136.705ZM134.705 205.729H134.792V201.729H134.705V205.729ZM136.705 245.468V203.729H132.705V245.468H136.705ZM161.34 244.207C153.811 249.941 143.346 249.817 135.955 243.906L133.456 247.03C142.281 254.087 154.775 254.235 163.764 247.39L161.34 244.207ZM161.774 243.877L161.34 244.207L163.764 247.39L164.197 247.06L161.774 243.877ZM160.986 204.562V245.468H164.986V204.562H160.986ZM160.943 204.144C160.971 204.276 160.985 204.408 160.986 204.54L164.985 204.525C164.984 204.114 164.94 203.709 164.856 203.314L160.943 204.144ZM160.986 203.729V204.532H164.986V203.729H160.986ZM162.899 205.729H162.986V201.729H162.899V205.729Z" fill="black" mask="url(#path-9-inside-1_5_88)"/>
<mask id="path-11-inside-2_5_88" fill="white">
<path fill-rule="evenodd" clip-rule="evenodd" d="M148.845 208.639C156.655 208.639 162.986 205.158 162.986 200.864C162.986 196.57 156.655 193.089 148.845 193.089C141.036 193.089 134.705 196.57 134.705 200.864C134.705 205.158 141.036 208.639 148.845 208.639ZM148.845 204.547C154.87 204.547 159.754 202.349 159.754 199.637C159.754 196.925 154.87 194.726 148.845 194.726C142.821 194.726 137.937 196.925 137.937 199.637C137.937 202.349 142.821 204.547 148.845 204.547Z"/>
</mask>
<path d="M160.986 200.864C160.986 201.945 160.163 203.354 157.88 204.61C155.669 205.825 152.479 206.639 148.845 206.639V210.639C153.021 210.639 156.901 209.713 159.808 208.115C162.642 206.556 164.986 204.078 164.986 200.864H160.986ZM148.845 195.089C152.479 195.089 155.669 195.903 157.88 197.119C160.163 198.374 160.986 199.784 160.986 200.864H164.986C164.986 197.651 162.642 195.173 159.808 193.614C156.901 192.016 153.021 191.089 148.845 191.089V195.089ZM136.705 200.864C136.705 199.784 137.528 198.374 139.811 197.119C142.022 195.903 145.212 195.089 148.845 195.089V191.089C144.67 191.089 140.79 192.016 137.883 193.614C135.049 195.173 132.705 197.651 132.705 200.864H136.705ZM148.845 206.639C145.212 206.639 142.022 205.825 139.811 204.61C137.528 203.354 136.705 201.945 136.705 200.864H132.705C132.705 204.078 135.049 206.556 137.883 208.115C140.79 209.713 144.67 210.639 148.845 210.639V206.639ZM157.754 199.637C157.754 199.716 157.586 200.453 155.738 201.285C154.077 202.033 151.642 202.547 148.845 202.547V206.547C152.074 206.547 155.093 205.962 157.38 204.933C159.479 203.988 161.754 202.269 161.754 199.637H157.754ZM148.845 196.726C151.642 196.726 154.077 197.24 155.738 197.988C157.586 198.82 157.754 199.557 157.754 199.637H161.754C161.754 197.004 159.479 195.286 157.38 194.341C155.093 193.311 152.074 192.726 148.845 192.726V196.726ZM139.937 199.637C139.937 199.557 140.105 198.82 141.953 197.988C143.614 197.24 146.049 196.726 148.845 196.726V192.726C145.617 192.726 142.598 193.311 140.311 194.341C138.212 195.286 135.937 197.004 135.937 199.637H139.937ZM148.845 202.547C146.049 202.547 143.614 202.033 141.953 201.285C140.105 200.453 139.937 199.716 139.937 199.637H135.937C135.937 202.269 138.212 203.988 140.311 204.933C142.598 205.962 145.617 206.547 148.845 206.547V202.547Z" fill="black" mask="url(#path-11-inside-2_5_88)"/>
<path d="M83.7996 184.624L39.6259 206.719C34.3131 209.376 31.0881 214.967 31.4143 220.954L33.8312 265.326C33.9825 268.104 31.7991 270.43 29.0408 270.43V270.43C27.8801 270.43 26.7608 270.852 25.888 271.618L23.2172 273.963C21.9232 275.099 21.1812 276.745 21.1812 278.48L21.1812 279.349C21.1812 282.058 22.9746 284.445 25.5644 285.183L34.1092 287.617" stroke="black" stroke-width="2"/>
<path d="M135.538 230.615L102.285 253.844C93.5315 259.959 86.6208 268.41 82.3186 278.261L68.0453 310.942L51.8852 301.53" stroke="black" stroke-width="2"/>
<path d="M112.081 201.683L63.7603 225.742C57.7426 228.739 54.2312 235.239 54.9837 241.99L56.3292 254.062" stroke="black" stroke-width="2"/>
<path d="M113.293 205.366L78.3954 233.995C69.1452 241.583 61.3034 250.78 55.2369 261.154L35.8962 294.228C34.2876 296.979 31.3652 298.666 28.2076 298.666L24.7968 298.666C22.4817 298.666 20.2619 299.597 18.6255 301.255V301.255C15.4804 304.44 15.2046 309.513 17.9851 313.034L18.4939 313.678C20.1923 315.828 22.7636 317.08 25.4816 317.08L48.2063 317.08C51.2539 317.08 54.0906 315.508 55.7329 312.909L59.5613 306.85" stroke="black" stroke-width="2"/>
<path d="M79.5358 178.837V178.837C84.4245 176.672 85.5551 170.17 81.6829 166.487L79.5357 164.444" stroke="black" stroke-width="2"/>
<path d="M259.542 187.769L233.864 240.244C220.769 267.004 198.137 287.746 170.544 298.278L157.733 303.167L157.733 294.574L190.599 274.045C200.829 267.655 209.227 258.659 214.952 247.958L250.654 181.222L259.542 187.769Z" stroke="black" stroke-width="2"/>
<path d="M175.957 280.397L175.957 262.655L183.994 251.607L183.994 277.387" stroke="black" stroke-width="2"/>
<path d="M211.561 253.19L211.561 220.717L219.598 211.504L219.598 240.149" stroke="black" stroke-width="2"/>
<path d="M51.0746 171.762L42.2828 174.53C38.9303 175.585 37.6719 179.676 39.8555 182.422L44.7185 188.537C46.0941 190.266 48.4447 190.882 50.4972 190.051L61.1773 185.723" stroke="black" stroke-width="2"/>
<path d="M135.104 243.764L128.071 248.96C123.406 252.406 123.141 259.291 127.528 263.051L133.512 268.18C137.129 271.28 142.545 271.003 145.854 267.55L219.546 190.634" stroke="black" stroke-width="2"/>
<path d="M68.2474 243.62L56.5313 231.344" stroke="black" stroke-width="2"/>
<path d="M37.3412 210.276L32.9038 206.411C25.9183 200.326 28.1698 188.956 36.9471 185.993L41.3812 184.496" stroke="black" stroke-width="2"/>
<path d="M85.1672 176.761L108.445 168.537" stroke="black" stroke-width="2"/>
<path d="M129.453 146.848L124.605 153.396L108.35 169.459C108.145 169.661 107.913 169.833 107.66 169.968L90.2795 179.25C88.2748 180.321 88.1401 183.178 90.0348 184.442L102.385 192.68" stroke="black" stroke-width="2"/>
<path d="M157.423 119.851L157.695 120.178C160.632 123.711 164.448 126.425 168.738 128.042V128.042C175.614 130.633 183.266 130.234 189.797 126.927V126.927C194.188 124.703 197.859 121.28 200.388 117.05L210.95 99.3851C212.897 96.1295 214.3 92.5751 215.105 88.8614L216.216 83.734C217.074 79.7737 216.89 75.6524 215.681 71.7744V71.7744C213.764 65.6253 209.411 60.5253 203.645 57.6732L201.419 56.5719C197.397 54.5827 192.978 53.5479 188.503 53.5479L184.925 53.5479C182.443 53.5479 179.958 54.0483 177.668 54.997V54.997C174.184 56.4407 171.169 58.9151 169.094 62.0681L166.622 65.8242" stroke="black" stroke-width="2"/>
<path d="M203.79 109.595L208.444 92.2018C208.829 90.7641 208.665 89.2341 207.985 87.9093L205.048 82.1884C204.249 80.6325 202.812 79.5017 201.112 79.0918L196.812 78.0549C195.824 77.8165 194.912 77.331 194.162 76.6439L189.409 72.2876C188.133 71.1183 188.37 69.0448 189.877 68.1968V68.1968C190.258 67.9828 190.687 67.8704 191.123 67.8704L192.552 67.8704C193.231 67.8704 193.833 68.3063 194.045 68.9512V68.9512C194.301 69.7279 193.918 70.5702 193.165 70.8879L190.806 71.8835C190.05 72.2025 189.22 72.3011 188.41 72.1681L174.78 69.9293C174.728 69.9207 174.675 69.9164 174.622 69.9164L173.747 69.9164C173.202 69.9164 172.927 69.2588 173.309 68.8711V68.8711C173.425 68.7544 173.582 68.6888 173.746 68.6888L176.626 68.6888C176.689 68.6888 176.753 68.6956 176.815 68.7091V68.7091C177.81 68.925 178.331 67.5746 177.45 67.0644L177.014 66.8118C176.824 66.7023 176.604 66.6597 176.388 66.691L174.267 66.9979C174.022 67.0333 173.773 67.003 173.543 66.9101L173.263 66.7964C172.559 66.5114 172.314 65.6392 172.765 65.0296V65.0296C172.968 64.755 173.282 64.5842 173.623 64.5626L179.549 64.1874" stroke="black" stroke-width="2"/>
</svg>
