<svg width="245" height="223" viewBox="0 0 245 223" fill="none" xmlns="http://www.w3.org/2000/svg">
<path d="M20.0689 159.8L10.4694 132.622C5.66105 119.008 6.25817 103.928 11.8413 90.2965C12.861 80.2109 16.4355 70.2636 22.4035 61.4665L34.5473 43.5659C47.4263 24.5817 69.4329 13.8672 91.427 15.8725L162.62 22.3633C201.903 19.6217 238.47 79.6707 241.862 94.828C245.253 109.985 247.995 159.313 207.459 190.932C152.44 227.747 114.388 209.833 64.9512 198.005C44.513 193.114 27.0565 179.584 20.0689 159.8Z" fill="white"/>
<path d="M207.459 190.932C152.44 227.747 114.388 209.833 64.9512 198.005C44.513 193.114 27.0565 179.584 20.0689 159.8L10.4694 132.622C4.20417 114.883 7.11624 94.6558 18.2776 78.3853L40.0917 46.586C52.4964 28.5031 73.252 17.9577 94.3878 18.9997L162.62 22.3633M207.459 190.932C236.704 164.311 234.065 141.292 235.121 109.374C235.391 101.195 234.415 93.0592 230.97 85.8717C221.771 66.6838 199.238 28.7231 162.62 22.3633M207.459 190.932C247.995 159.313 245.253 109.985 241.862 94.828C238.47 79.6707 201.903 19.6217 162.62 22.3633M162.62 22.3633L91.427 15.8725C69.4329 13.8672 47.4263 24.5817 34.5473 43.5659L22.4035 61.4665C11.8273 77.0563 8.76795 96.2585 14.1229 113.441L35.4087 181.741" stroke="black" stroke-width="2"/>
</svg>
